<svg width="445" height="220" viewBox="0 0 445 220" fill="none" xmlns="http://www.w3.org/2000/svg">
<path d="M70.924 165.439C39.626 142.937 25.3748 87.3687 34.4791 63.8178C46.4448 32.8652 73.18 31.6087 85.0519 34.8496C92.0366 35.6797 107.66 42.5497 114.275 63.3893C120.891 84.2288 144.255 76.788 155.11 70.4627C173.241 59.7166 212.951 54.8334 223.092 100.736C233.673 148.631 199.825 175.281 173.541 182.219C151.518 188.032 112.554 195.37 70.924 165.439Z" fill="white" stroke="#FE6300" stroke-width="2.84223"/>
<path d="M67.4342 82.123C66.1389 81.325 63.9467 79.2924 62.9389 76.3229C54.5877 75.3979 51.6411 75.0895 50.2318 77.5411C48.123 81.2097 51.4597 86.713 52.6973 88.8256C53.935 90.9381 52.2199 92.4127 50.6458 92.7566C47.868 93.3635 40.0493 89.481 42.1129 78.1235C43.8748 68.4267 57.0454 69.3313 63.0672 70.979C68.2901 63.5772 105.586 47.7762 107.986 48.4444C110.569 49.1633 111.661 48.9266 113.513 54.296C116.957 58.2179 124.173 68.5077 121.631 72.057C109.45 89.0616 101.631 75.5753 100.579 76.8264C98.4621 79.345 106.28 89.8581 85.4676 97.6132C79.1879 99.9531 72.7603 95.8436 67.4342 82.123Z" fill="white"/>
<path d="M63.0672 70.979C62.6708 71.5407 62.4461 72.0499 62.4202 72.4952C62.1266 77.5452 65.6405 81.0179 67.4342 82.123C72.7603 95.8436 79.1879 99.9531 85.4676 97.6132C106.28 89.8581 98.4621 79.345 100.579 76.8264C101.631 75.5753 109.45 89.0616 121.631 72.057C124.173 68.5077 116.957 58.2179 113.513 54.296C111.661 48.9266 110.569 49.1633 107.986 48.4444C105.586 47.7762 68.2901 63.5772 63.0672 70.979ZM63.0672 70.979C57.0454 69.3313 43.8748 68.4267 42.1129 78.1235C40.0493 89.481 47.868 93.3635 50.6458 92.7566C52.2199 92.4127 53.935 90.9381 52.6973 88.8256C51.4597 86.713 48.123 81.2097 50.2318 77.5411C51.6411 75.0895 54.5877 75.3979 62.9389 76.3229" stroke="#FE6300" stroke-width="2.84223"/>
<path d="M251.443 44.1866C246.171 42.0329 237.43 49.6764 233.029 55.6421L233.029 67.2407L214.402 58.6097L223.139 46.3129C224.895 41.2482 237.942 29.4747 247.015 27.708C260.911 25.0023 265.952 32.3114 270.186 39.3826C277.487 51.5797 279.163 80.0393 277.805 96.2256L277.888 95.4323C289.003 94.935 301.4 84.3011 312.729 81.5944C321.792 79.4291 325.343 81.7688 325.985 83.2093C330.367 82.202 332.617 85.0839 333.278 87.2009C337.371 86.3515 339.872 89.1077 340.289 91.7164C341.253 90.9395 342.317 90.1226 343.514 89.2675C352.367 82.9465 366.3 108.38 336.01 118.856C305.721 129.331 271.39 125.7 263.36 123.965C255.331 122.23 253.053 115.994 255.016 109.696C256.945 103.508 257.569 104.053 258.202 97.4243C261.355 64.4179 256.716 46.3403 251.443 44.1866Z" fill="white"/>
<path d="M329.14 100.077C333.217 98.3876 335.553 95.534 340.289 91.7164M340.289 91.7164C341.253 90.9395 342.317 90.1226 343.514 89.2675C352.367 82.9465 366.3 108.38 336.01 118.856C305.721 129.331 271.39 125.7 263.36 123.965C255.331 122.23 253.053 115.994 255.016 109.696C256.945 103.508 257.569 104.053 258.202 97.4243C261.355 64.4179 256.716 46.3403 251.443 44.1866C246.171 42.0329 237.43 49.6764 233.029 55.6421L233.029 67.2407L214.402 58.6097L223.139 46.3129C224.895 41.2482 237.942 29.4747 247.015 27.708C260.911 25.0023 265.952 32.3114 270.186 39.3826C278.023 52.4747 279.379 84.3036 277.459 99.5793L277.888 95.4323C289.003 94.935 301.4 84.3011 312.729 81.5944C321.792 79.4291 325.343 81.7688 325.985 83.2093M340.289 91.7164C339.872 89.1077 337.371 86.3515 333.278 87.2009M325.657 91.9908C328.583 89.0632 331.146 87.6432 333.278 87.2009M333.278 87.2009C332.617 85.0839 330.367 82.202 325.985 83.2093M320.531 85.9296C322.63 84.4032 324.44 83.5645 325.985 83.2093" stroke="#FE6300" stroke-width="2.84223" stroke-linecap="round"/>
<path d="M32.8796 116.785C43.0552 107.696 48.2038 106.303 51.8051 106.994L51.0386 132.491C41.9176 124.956 23.0588 151.867 30.4191 165.493C37.7793 179.119 81.3819 175.461 82.2265 170.8C83.3695 164.494 92.2316 158.322 94.9423 156.456C97.653 154.59 96.2627 147.558 92.9846 142.478C90.3621 138.415 90.1533 135.445 90.3767 134.468C91.9586 132.58 96.5315 129.607 102.168 132.816C107.805 136.026 108.511 144.987 108.159 149.066C108.011 151.541 108.645 156.293 112.37 155.501C117.027 154.511 125.721 140.865 132.898 135.2C140.074 129.534 147.215 126.507 150.77 130.67C154.325 134.833 153.43 140.497 148.304 143.444C144.203 145.801 136.82 151.469 133.641 154.008C130.414 156.689 124.591 162.219 127.117 162.892C129.643 163.565 138.475 160.874 142.575 159.444C153.438 155.599 162.026 155.571 164.769 159.24C166.206 162.753 167.165 167.185 162.905 169.565C157.58 172.54 149.983 172.793 138.195 173.026C134.15 173.106 131.035 173.691 128.741 174.373C132.039 178.017 131.233 184.136 127.385 186.505C128.141 188.85 126.977 194.104 116.269 196.36C105.562 198.616 94.4528 194.199 90.2368 191.708C84.2699 192.95 66.4942 194.803 43.1268 192.276C13.9175 189.117 12.2655 172.093 12.1031 162.52C11.8426 147.156 20.1601 128.146 32.8796 116.785Z" fill="white"/>
<path d="M32.8796 116.785C43.0552 107.696 48.2038 106.303 51.8051 106.994L51.0386 132.491C41.9176 124.956 23.0588 151.867 30.4191 165.493C37.7793 179.119 81.3819 175.461 82.2265 170.8C83.3695 164.494 92.2316 158.322 94.9423 156.456C97.653 154.59 96.2627 147.558 92.9846 142.478C90.3621 138.415 90.1533 135.445 90.3767 134.468C91.9586 132.58 96.5315 129.607 102.168 132.816C107.805 136.026 108.511 144.987 108.159 149.066C108.011 151.541 108.645 156.293 112.37 155.501C117.027 154.511 125.721 140.865 132.898 135.2C140.074 129.534 147.215 126.507 150.77 130.67C154.325 134.833 153.43 140.497 148.304 143.444C144.203 145.801 136.82 151.469 133.641 154.008C130.414 156.689 124.591 162.219 127.117 162.892C129.643 163.565 138.475 160.874 142.575 159.444C153.438 155.599 162.026 155.571 164.769 159.24C166.206 162.753 167.165 167.185 162.905 169.565C157.58 172.54 149.983 172.793 138.195 173.026C134.15 173.106 131.035 173.691 128.741 174.373C132.039 178.017 131.233 184.136 127.385 186.505C128.141 188.85 126.977 194.104 116.269 196.36C105.562 198.616 94.4528 194.199 90.2368 191.708C84.2699 192.95 66.4942 194.803 43.1268 192.276C13.9175 189.117 12.2655 172.093 12.1031 162.52C11.8426 147.156 20.1601 128.146 32.8796 116.785Z" fill="white"/>
<path d="M128.306 174.221C128.312 174.228 128.318 174.234 128.324 174.241C123.932 175.545 122.546 177.2 123.4 176.326C124.44 175.262 127.104 174.479 128.306 174.221Z" fill="white"/>
<path d="M128.306 174.221C128.312 174.228 128.318 174.234 128.324 174.241C123.932 175.545 122.546 177.2 123.4 176.326C124.44 175.262 127.104 174.479 128.306 174.221Z" fill="white"/>
<path d="M51.3888 106.863C47.7875 106.171 42.639 107.564 32.4633 116.653C19.7438 128.014 11.4263 147.024 11.6869 162.388C11.8492 171.961 13.5012 188.985 42.7105 192.144C66.078 194.671 83.8536 192.818 89.8205 191.576C94.0366 194.067 105.145 198.485 115.853 196.228C126.56 193.972 127.725 188.718 126.968 186.373C130.824 184 131.626 177.863 128.306 174.221C127.104 174.479 124.44 175.262 123.4 176.326C122.1 177.657 125.991 173.127 137.779 172.894C149.567 172.661 157.164 172.408 162.489 169.433C166.748 167.053 165.79 162.622 164.352 159.108C161.61 155.439 153.022 155.467 142.159 159.312C138.058 160.742 129.227 163.433 126.701 162.76C124.175 162.087 129.997 156.557 133.224 153.876C136.403 151.337 143.787 145.669 147.888 143.312C153.014 140.365 153.909 134.701 150.354 130.538C146.799 126.375 139.658 129.402 132.481 135.068C125.304 140.733 116.611 154.379 111.954 155.369C108.228 156.161 107.594 151.409 107.743 148.934C108.095 144.855 107.389 135.894 101.752 132.685C96.1152 129.475 91.5423 132.448 89.9604 134.336C89.737 135.313 89.9458 138.283 92.5683 142.346C95.8465 147.426 97.2367 154.459 94.526 156.324C91.8153 158.19 82.9533 164.362 81.8102 170.669C80.9656 175.329 37.3631 178.988 30.0028 165.361C22.6425 151.735 41.5013 124.825 50.6224 132.359" stroke="#FE6300" stroke-width="2.84219" stroke-linecap="round"/>
<path d="M170.159 183.369C186.729 132.895 170.908 85.9154 160.478 67.5976C165.3 64.79 180.512 57.025 192.637 59.4953C194.944 58.9747 196.522 63.5368 202.63 47.0701C202.988 44.9826 208.452 40.5392 220.128 46.018C234.722 52.8666 241.359 70.6 236.788 72.9501C232.217 75.3002 224.137 81.1833 220.321 85.8027C217.269 89.4982 219.211 88.0021 220.564 86.7922C223.433 94.9887 228.274 115.91 224.682 134.025C230.632 133.556 238.29 130.648 240.965 129.433C245.526 127.363 251.997 145.393 251.411 161.057C250.825 176.722 247.325 184.155 243.483 189.473C239.642 194.792 239.234 190.715 216.887 185.117C199.009 180.639 177.987 181.328 170.159 183.369Z" fill="white"/>
<path d="M216.989 129.937C217.146 133.474 220.49 134.355 224.682 134.025M224.682 134.025C230.632 133.556 238.29 130.648 240.965 129.433C245.526 127.363 251.997 145.393 251.411 161.057C250.825 176.722 247.325 184.155 243.483 189.473C239.642 194.792 239.234 190.715 216.887 185.117C199.009 180.639 177.987 181.328 170.159 183.369C186.729 132.895 170.908 85.9154 160.478 67.5976C165.3 64.79 180.512 57.025 192.637 59.4953C194.944 58.9747 196.522 63.5368 202.63 47.0701C202.988 44.9826 208.452 40.5392 220.128 46.018C234.722 52.8666 241.359 70.6 236.788 72.9501C232.217 75.3002 224.137 81.1833 220.321 85.8027C217.269 89.4982 219.211 88.0021 220.564 86.7922C223.433 94.9887 228.274 115.91 224.682 134.025Z" stroke="#FE6300" stroke-width="2.84223" stroke-linecap="round"/>
<path d="M92.4315 107.66C101.961 109.769 118.078 101.893 123.517 90.0442" stroke="#FE6300" stroke-width="2.84223" stroke-linecap="round"/>
<path d="M89.2051 102.941C90.8289 104.317 93.2758 108.281 90.0727 113.137" stroke="#FE6300" stroke-width="2.84223" stroke-linecap="round"/>
<path d="M108.208 51.201C74.4274 71.708 38.4245 73.6361 29.2816 69.0988C28.2338 64.4683 25.7247 50.7727 32.4582 38.0029C39.3282 24.9746 59.4383 10.2698 83.5258 22.421C97.6786 29.5606 97.9135 38.2845 102.344 38.1946C106.775 38.1047 110.642 27.7408 117.683 7.37206C124.725 -12.9967 153.096 23.9512 108.208 51.201Z" fill="white" stroke="#FE6300" stroke-width="2.84223" stroke-linecap="round"/>
<path d="M48.3865 34.1903C55.8628 33.2848 78.1095 34.1643 84.9669 52.3393" stroke="#FE6300" stroke-width="2.84223" stroke-linecap="round"/>
<circle cx="43.6531" cy="61.8862" r="1.56323" transform="rotate(2.14194 43.6531 61.8862)" fill="#FE6300"/>
<circle cx="69.417" cy="57.4458" r="1.56323" transform="rotate(2.14194 69.417 57.4458)" fill="#FE6300"/>
<ellipse cx="240.317" cy="161.111" rx="5.11601" ry="24.5853" transform="rotate(2.14194 240.317 161.111)" fill="#FE6300"/>
<path d="M81.0545 92.2965C76.8869 90.7415 73.4152 83.6204 71.9394 77.4501C70.7375 72.4247 86.1059 63.2127 90.6095 68.7625C95.1131 74.3122 95.6965 81.0407 95.585 84.0229C95.4811 86.8002 86.264 94.2403 81.0545 92.2965Z" fill="#FE6300" stroke="#FE6300" stroke-width="2.84223" stroke-linecap="round"/>
<path d="M108.269 75.6803C105.664 74.4994 100.142 68.4225 99.2508 63.6537C98.5246 59.7697 107.588 54.9832 111.187 58.603C115.298 62.7386 117.405 67.1676 117.318 69.4771C117.238 71.6278 111.526 77.1565 108.269 75.6803Z" fill="#FE6300" stroke="#FE6300" stroke-width="2.84223" stroke-linecap="round"/>
<path d="M101.939 79.6998C128.686 69.2774 167.279 57.1938 107.666 92.2387L101.939 79.6998Z" fill="white"/>
<path d="M101.96 79.1305C128.708 68.7081 167.3 56.6245 107.687 91.6693" stroke="#FE6300" stroke-width="2.84223" stroke-linecap="round"/>
<path d="M392.876 177.198C339.137 181.331 270.982 175.199 243.621 171.616L238.509 171.424C237.114 166.139 238.438 155.589 239.274 150.975C244.912 151.043 262.523 152.925 292.049 154.371C328.956 156.178 371.905 148.54 375.219 147.384C378.534 146.228 379.726 137.171 379.163 121.792C378.601 106.412 365.691 82.7487 359.552 71.9955C353.412 61.2422 362.35 58.0212 367.178 58.2018C371.609 58.3675 375.262 61.3381 376.658 63.3051C377.185 63.1945 377.756 63.1482 378.369 63.1711C382.475 63.3247 384.693 65.1979 385.346 66.7573C386.296 66.1569 387.316 65.9234 388.078 65.9518C393.616 66.159 396.918 69.1267 398.088 72.0809C398.927 71.8856 399.918 71.7987 401.083 71.8422C406.621 72.0494 412.144 77.3523 417.499 100.614C422.882 123.996 421.512 172.012 408.64 177.787C402.47 180.556 395.846 178.921 392.876 177.198Z" fill="white"/>
<path d="M396.307 85.4581C394.086 81.1087 391.795 73.5458 398.088 72.0809M398.088 72.0809C398.927 71.8856 399.918 71.7987 401.083 71.8422C406.621 72.0494 412.144 77.3523 417.499 100.614C422.882 123.996 421.512 172.012 408.64 177.787C402.47 180.556 395.846 178.921 392.876 177.198C339.137 181.331 270.982 175.199 243.621 171.616L238.509 171.424C237.114 166.139 238.438 155.589 239.274 150.975C244.912 151.043 262.523 152.925 292.049 154.371C328.956 156.178 371.905 148.54 375.219 147.384C378.534 146.228 379.726 137.171 379.163 121.792C378.601 106.412 365.691 82.7487 359.552 71.9955C353.412 61.2422 362.35 58.0212 367.178 58.2018C371.609 58.3675 375.262 61.3381 376.658 63.3051M398.088 72.0809C396.918 69.1267 393.616 66.159 388.078 65.9518C387.316 65.9234 386.296 66.1569 385.346 66.7573M384.795 81.4722C380.909 73.4662 382.927 68.2851 385.346 66.7573M385.346 66.7573C384.693 65.1979 382.475 63.3247 378.369 63.1711C377.756 63.1482 377.185 63.1945 376.658 63.3051M374.476 79.8064C370.538 71.4122 371.569 64.3715 376.658 63.3051" stroke="#FE6300" stroke-width="2.84223" stroke-linecap="round"/>
<path d="M417.583 113.559C389.266 110.224 376.386 88.3161 374.076 79.0808C389.975 98.1059 409.829 102.887 417.177 101.598L415.398 92.1453C410.474 71.7104 402.222 69.278 398.711 70.6163C397.871 65.6928 389.782 64.7361 385.842 64.8732C385.351 62.8069 379.755 61.6116 377.018 61.2723C375.845 59.1805 372.238 58.5337 370.581 58.4717C382.46 37.4422 413.11 62.0533 416.375 66.0151C420.728 71.2975 435.809 97.7439 433.48 137.191C431.152 176.639 415.743 181.779 411.13 183.427C406.518 185.075 401.676 181.462 400.738 179.91C412.099 180.335 419.268 172.696 420.549 144.529C421.83 116.363 419.106 112.146 417.583 113.559Z" fill="#FE6300" stroke="#FE6300" stroke-width="2.84223" stroke-linecap="round"/>
<path d="M379.536 165.034C383.248 165.223 391.306 165.026 393.844 162.728" stroke="#FE6300" stroke-width="2.84223" stroke-linecap="round"/>
<path d="M371.75 95.6324C374.251 92.6542 374.721 84.651 375.012 80.68C377.432 88.9619 376.425 99.9313 375.119 104.433L371.75 95.6324Z" fill="#FE6300" stroke="#FE6300" stroke-width="2.84223" stroke-linecap="round"/>
<path d="M430.989 74.5244C439.363 90.7875 450.933 131.864 433.376 176.437" stroke="#FE6300" stroke-width="2.84223" stroke-linecap="round"/>
<path d="M265.279 94.5194C264.406 96.3354 263.092 101.292 264.828 106.59" stroke="#FE6300" stroke-width="2.84223" stroke-linecap="round"/>
<path d="M251.109 123.57C249.978 120.342 252.193 117.4 253.794 116.417C253.488 124.597 270.391 126.424 278.88 126.315C332.308 127.46 344.563 115.404 351.313 109.825C356.713 105.363 355.671 97.2368 354.475 93.7316C360.723 93.9653 370.867 115.534 350.755 124.737C337.34 130.875 314.541 136.608 286.64 135.564C256.675 134.444 252.523 127.604 251.109 123.57Z" fill="#FE6300" stroke="#FE6300" stroke-width="2.84223" stroke-linecap="round"/>
<path d="M319.697 122.437C320.513 112.797 327.347 102.956 330.662 99.2402C317.489 104.664 308.97 119.002 306.357 125.493L319.697 122.437Z" fill="#FE6300" stroke="#FE6300" stroke-width="2.84223" stroke-linecap="round"/>
<path d="M306.341 84.1114C308.274 89.4455 323.879 98.0877 331.372 99.2686C319.531 100.248 302.687 94.3561 295.777 88.9781L306.341 84.1114Z" fill="#FE6300" stroke="#FE6300" stroke-width="2.84223" stroke-linecap="round"/>
<path d="M271.237 26.4814C275.668 28.4011 285.047 39.0005 287.107 66.0408" stroke="#FE6300" stroke-width="2.84223" stroke-linecap="round"/>
<path d="M282.891 30.4717C284.668 32.3869 288.753 38.7401 290.879 48.8312" stroke="#FE6300" stroke-width="2.84223" stroke-linecap="round"/>
<path d="M6.41439 180.134C2.62027 173.835 -1.38461 154.581 12.9488 127.961" stroke="#FE6300" stroke-width="2.84223" stroke-linecap="round"/>
<path d="M20.1832 59.4438C19.2825 53.1054 20.0596 37.6525 30.3728 26.5476" stroke="#FE6300" stroke-width="2.84223" stroke-linecap="round"/>
<path d="M13.8269 49.6783C13.8491 46.5505 14.8125 38.5374 18.4884 31.5074" stroke="#FE6300" stroke-width="2.84223" stroke-linecap="round"/>
</svg>
