<svg width="260" height="260" viewBox="0 0 260 260" fill="none" xmlns="http://www.w3.org/2000/svg">
<circle cx="129.018" cy="131.229" r="79.0493" fill="white" stroke="#FE6300" stroke-width="2.71414"/>
<path d="M144.11 156.585C145.454 155.825 147.754 153.848 148.888 150.875C157.39 150.254 160.39 150.053 161.726 152.592C163.725 156.392 160.133 161.845 158.798 163.94C157.463 166.035 159.146 167.595 160.729 168.003C163.522 168.724 171.597 165.084 169.935 153.49C168.517 143.592 155.129 144.01 148.961 145.452C143.946 137.749 106.73 120.314 104.271 120.901C101.626 121.532 100.528 121.25 98.4459 126.624C94.8054 130.47 87.099 140.629 89.542 144.324C101.247 162.027 109.686 148.65 110.705 149.958C112.756 152.592 104.431 162.955 125.239 171.607C131.517 174.218 138.19 170.295 144.11 156.585Z" fill="white"/>
<path d="M148.961 145.452C149.341 146.036 149.55 146.561 149.559 147.014C149.665 152.145 145.971 155.533 144.11 156.585C138.19 170.295 131.517 174.218 125.239 171.607C104.431 162.955 112.756 152.592 110.705 149.958C109.686 148.65 101.247 162.027 89.542 144.324C87.099 140.629 94.8054 130.47 98.4459 126.624C100.528 121.25 101.626 121.532 104.271 120.901C106.73 120.314 143.946 137.749 148.961 145.452ZM148.961 145.452C155.129 144.01 168.517 143.592 169.935 153.49C171.597 165.084 163.522 168.724 160.729 168.003C159.146 167.595 157.463 166.035 158.798 163.94C160.133 161.845 163.725 156.392 161.726 152.592C160.39 150.053 157.39 150.254 148.888 150.875" stroke="#FE6300" stroke-width="2.55929"/>
<path d="M181.521 94.2284C175.18 87.4518 156.62 75.5477 133.099 82.1445" stroke="#FE6300" stroke-width="2.55929" stroke-linecap="round"/>
<path d="M117.797 181.53C108.055 183.308 92.013 174.711 86.9471 162.491" stroke="#FE6300" stroke-width="2.55929" stroke-linecap="round"/>
<path d="M121.247 176.866C119.549 178.199 116.918 182.125 119.981 187.17" stroke="#FE6300" stroke-width="2.55929" stroke-linecap="round"/>
<path d="M103.942 123.687C137.415 145.76 173.845 149.08 183.287 144.827C184.525 140.171 187.588 126.381 181.245 113.178C174.774 99.7079 154.942 84.0361 130.059 95.4428C115.438 102.145 114.869 110.981 110.381 110.722C105.892 110.463 102.364 99.8083 95.997 78.8894C89.6298 57.9704 59.4636 94.3562 103.942 123.687Z" fill="white" stroke="#FE6300" stroke-width="2.55929" stroke-linecap="round"/>
<path d="M165.241 108.709C157.695 107.507 135.106 107.555 127.464 125.723" stroke="#FE6300" stroke-width="2.55929" stroke-linecap="round"/>
<circle cx="1.58607" cy="1.58607" r="1.58607" transform="matrix(-1 0 0 1 170.576 135.384)" fill="#FE6300"/>
<circle cx="1.58607" cy="1.58607" r="1.58607" transform="matrix(-1 0 0 1 144.622 129.905)" fill="#FE6300"/>
<path d="M129.915 166.384C134.199 164.965 137.989 157.877 139.72 151.677C141.129 146.627 125.896 136.704 121.119 142.16C116.343 147.617 115.496 154.416 115.496 157.444C115.496 160.264 124.559 168.157 129.915 166.384Z" fill="#FE6300" stroke="#FE6300" stroke-width="2.55929" stroke-linecap="round"/>
<path d="M102.952 148.459C105.638 147.36 111.467 141.408 112.552 136.607C113.435 132.696 104.428 127.5 100.642 131.033C96.3159 135.071 94.0121 139.481 94.0121 141.826C94.0121 144.01 99.5939 149.832 102.952 148.459Z" fill="#FE6300" stroke="#FE6300" stroke-width="2.55929" stroke-linecap="round"/>
<path d="M109.218 152.821C82.4932 141.239 43.8227 127.524 102.935 165.317L109.218 152.821Z" fill="white"/>
<path d="M109.218 152.244C82.4932 140.662 43.8227 126.947 102.935 164.74" stroke="#FE6300" stroke-width="2.55929" stroke-linecap="round"/>
<path d="M181.797 145.54C182.161 157.215 180.387 184.128 170.377 198.378" stroke="#FE6300" stroke-width="2.61862" stroke-linecap="round"/>
<path d="M71.2031 90.7344C71.2031 96.8724 74.1428 110.984 85.9016 118.328" stroke="#FE6300" stroke-width="2.52163" stroke-linecap="round"/>
<path d="M55.509 87.2911C47.4959 100.489 16.2307 87.5085 29.0409 65.8047L32.1457 60.5444C33.0502 59.0119 33.9085 59.0717 35.0682 59.7562L45.2574 65.7701C45.5474 65.9413 45.6641 66.1219 45.4441 66.4947C43.4768 69.3546 31.5784 66.5205 28.9884 69.9624C24.7395 75.5526 44.8894 93.6449 53.0452 79.6376C55.9374 74.6428 49.3267 69.5681 48.031 71.7634C46.8575 73.7515 49.3526 80.0272 46.4646 82.1762C42.5098 85.0917 37.8023 80.8612 39.5617 80.0566C41.3211 79.252 41.9929 75.1806 43.4462 71.9614C45.768 66.7975 50.9585 65.9517 54.1137 71.1091C55.3325 73.113 60.0842 75.4708 62.2612 74.2425C62.5077 74.1088 62.8391 74.3043 62.6679 74.5943L61.3234 76.8724C61.0789 77.2865 60.9472 77.3205 60.533 77.076L58.959 76.147C54.4857 73.5068 60.2782 79.4947 55.509 87.2911ZM74.528 64.6059C59.9161 77.0461 37.9664 51.2647 52.5783 38.8244C67.1536 26.4153 89.1033 52.1968 74.528 64.6059ZM50.4251 43.1211C46.0677 49.7997 71.4073 66.5048 75.7959 59.8628C80.2211 53.1897 54.8449 36.5157 50.4251 43.1211ZM109.101 46.5235C94.2752 50.0873 80.8547 18.9075 106.122 12.4954L110.644 11.3479C112.229 10.9456 112.731 11.1655 113.157 12.8437L116.067 24.3118C116.138 24.5916 116.163 24.8831 115.697 25.0014C112.234 25.6319 106.982 14.907 102.668 15.5056C95.7073 16.4285 97.1096 43.4632 112.75 39.3949C114.882 38.8041 116.649 36.9664 117.606 33.8951C117.744 33.2647 118.608 33.5416 118.505 34.1135C117.225 41.3854 113.448 45.4699 109.101 46.5235ZM121.936 42.2822C123.487 40.9556 124.217 37.1531 124.565 35.1541C125.155 31.2925 125.377 27.2092 125.683 23.2772C125.981 19.4411 126.327 12.5212 124.422 10.3468C124.293 10.1438 124.363 9.85982 124.555 9.87475L142.057 11.2371C157.737 12.4575 153.688 31.0048 139.831 29.9262C139.303 29.8851 139.203 30.5527 139.826 30.6012C150.375 31.4223 146.327 41.2862 151.732 44.9873C151.96 45.1498 151.93 45.5334 151.595 45.5073L144.834 44.981C140.23 44.6227 138.815 42.9689 138.42 39.3682C137.835 33.8714 137.749 27.545 131.142 26.8861C130.375 26.8264 130.194 27.2947 130.994 27.5499C132.447 28.0972 133.125 29.3078 132.856 32.7602C132.479 37.6033 133.125 41.7058 135.735 43.5009C136.1 43.7705 135.819 44.2793 135.579 44.2607L122.009 43.2044C121.721 43.182 121.678 42.5033 121.936 42.2822ZM134.166 15.9294L133.927 18.9983C132.36 39.1377 158.323 13.6126 138.032 12.1298C135.011 11.8946 134.398 12.9565 134.166 15.9294ZM153.158 44.9728C156.013 43.8687 159.213 36.8696 160.788 33.3066L162.792 28.7759C164.289 25.3889 167.216 18.5319 166.112 15.6772C166.058 15.4429 166.219 15.1984 166.395 15.2762C173.741 18.5246 181.614 22.0063 188.96 25.2546C190.412 25.8965 190.174 26.7906 189.688 27.8903L185.953 36.3359C185.72 36.8637 185.447 37.0059 185.051 36.8308C180.907 35.2613 187.286 25.8292 179.325 22.3085C175.894 20.7913 174.888 20.9251 171.756 28.007L170.122 31.702C176.868 30.0045 174.9 37.5482 179.976 36.5327C181.895 36.1189 180.51 42.343 175.597 42.2741C172.73 42.216 172.109 39.1015 171.068 36.2222C170.2 33.787 168.631 33.4091 167.312 32.8255C166.344 32.3976 166.35 32.9787 167.083 33.4608C168.673 34.7422 167.613 37.3763 166.932 38.9159C164.948 43.4026 165.85 45.1687 167.83 46.044C178.607 50.8095 181.298 38.0636 183.856 40.2466C184.012 40.3684 184.086 40.5587 183.93 40.9106L178.017 54.2827C177.337 55.8223 177.025 56.5261 175.046 55.6508C167.92 52.4997 160.002 48.9985 152.92 45.8669C152.656 45.7502 152.841 45.0955 153.158 44.9728ZM184.936 61.5552L201.481 34.4351C201.659 34.1333 201.901 33.969 202.299 34.3869L205.782 38.0434C207.474 39.8194 207.335 39.9521 206.307 41.6622C202.269 48.232 198.266 54.7686 194.262 61.3732C191.357 66.1334 194.2 65.3519 197.062 63.7544C201.267 61.4751 203.002 60.0884 205.201 56.3996L211.931 45.4046C212.108 45.1028 212.351 44.9385 212.749 45.3564L216.232 49.0129C217.924 50.7889 217.785 50.9216 216.757 52.6317C212.719 59.2015 208.749 65.7729 204.712 72.3427C201.807 77.1029 204.616 76.2866 207.512 74.7239C211.372 72.6403 212.717 71.8905 216.165 70.0011C228.027 63.417 212.094 58.3358 218.307 51.8188C218.586 51.5534 218.753 51.6595 218.919 51.8337L227.544 60.8878C229.402 62.838 229.507 64.1332 225.887 66.1206L205.237 77.3562C203.099 78.529 202.245 80.0732 201.799 81.6273C201.726 81.8296 201.484 81.9938 201.285 81.7849L196.01 76.2479C194.385 74.5415 194.607 73.7985 195.386 72.5247L198.22 67.8988C200.842 63.608 200.75 63.1635 197.717 64.7909L194.787 66.3867C192.649 67.5595 191.795 69.1037 191.349 70.6578C191.276 70.8601 191.034 71.0243 190.835 70.8154L185.56 65.2784C183.935 63.572 184.157 62.829 184.936 61.5552ZM216.704 85.5094L234.877 72.6381C235.434 72.248 235.842 72.2029 236.168 72.8465L239.037 78.51C239.298 79.0249 239.235 79.3264 238.419 79.6317L217.248 86.6895C217.054 86.7336 216.968 86.6695 216.881 86.4979L216.598 85.9401C216.49 85.7256 216.511 85.6609 216.704 85.5094ZM215.678 86.7838C216.808 89.0149 215.919 91.7297 213.645 92.8815C211.414 94.0116 208.699 93.1224 207.569 90.8913C206.417 88.6173 207.306 85.9024 209.537 84.7723C211.811 83.6205 214.526 84.5098 215.678 86.7838Z" fill="#FE6300"/>
<path d="M232.909 144.858C232.997 144.481 233.226 144.447 233.519 144.515L243.769 146.921C244.94 147.196 245.551 147.605 245.079 149.613C243.37 156.892 242.261 161.62 240.562 168.858C240.09 170.866 239.362 170.96 238.191 170.685L227.941 168.279C227.648 168.21 227.458 168.077 227.547 167.701C228.037 164.858 245.153 163.402 238.961 161.949L225.699 158.836C222.31 158.04 215.597 156.553 213.272 157.993C213.014 158.153 212.438 157.974 212.507 157.681C213.331 154.167 214.156 150.653 214.981 147.138C215.04 146.887 215.646 146.941 215.806 147.2C217.246 149.524 223.921 151.179 227.309 151.975L240.613 155.097C246.722 156.531 232.083 147.622 232.909 144.858ZM209.846 165.35C210.994 163.235 212.104 162.81 214.771 165.284L229.978 179.79C231.6 181.306 233.11 181.587 234.554 181.539C234.746 181.546 234.952 181.706 234.829 181.933L231.571 187.939C230.567 189.79 229.912 189.826 228.577 189.493L200.973 182.879C200.668 182.811 200.461 182.65 200.707 182.197L202.859 178.231C203.904 176.304 204.055 176.386 205.791 176.79C207.507 177.232 208.996 177.551 211.323 178.129C214.775 178.975 216.874 178.891 219.348 175.051C220.463 173.358 220.838 172.486 219.601 171.521C212.069 165.578 211.545 178.982 204.674 175.696C204.41 175.552 204.396 175.398 204.519 175.171L209.846 165.35ZM224.712 176.249C223.22 174.854 222.135 174.51 221.275 176.096L220.271 177.947C219.431 179.496 219.851 180.164 221.796 180.632L225.935 181.655C230.763 182.759 231.421 182.627 229.352 180.673L224.712 176.249ZM200.473 183.936C200.44 186.641 205.389 191.781 207.696 194.092L210.823 197.225C213.161 199.567 217.927 204.22 220.632 204.253C220.875 204.253 221.026 204.466 220.874 204.618L216.038 209.445C214.67 210.811 214.214 210.598 213.212 209.594L206.594 202.964C204.56 200.926 203.373 203.387 203.432 204.481C203.582 206.699 203.522 205.848 203.672 207.884C203.667 213.475 210.658 212.023 211.172 213.999C211.233 214.181 211.142 214.333 210.959 214.515L207.127 218.34C205.789 219.676 203.51 219.34 203.36 217.365C203.089 214.478 202.549 206.759 202.399 204.905C202.369 204.388 201.883 203.902 201.427 204.6C197.44 211.555 186.996 200.789 181.677 202.212C181.434 202.273 181.191 202.029 181.404 201.817C182.834 200.39 184.263 198.963 185.693 197.536C188.612 194.622 190.557 194.623 193.23 196.449C195.446 197.94 203.068 203.812 204.41 198.829C204.684 197.827 204.989 197.28 205.446 196.035C205.598 195.518 205.112 195.214 204.868 195.761C203.772 198.677 202.283 198.402 200.067 196.425C197.213 193.87 194.024 191.953 191.592 192.619C191.227 192.679 191.046 192.193 191.198 192.041C194.057 189.187 196.946 186.303 199.805 183.449C199.987 183.267 200.443 183.663 200.473 183.936ZM180.896 203.196C180.093 205.81 183.236 211.926 184.866 215.002L186.938 218.913C188.487 221.837 191.682 227.682 194.296 228.486C194.491 228.577 194.573 228.825 194.421 228.906C188.08 232.266 181.283 235.867 174.941 239.227C173.688 239.891 173.192 239.23 172.689 238.281L168.826 230.99C168.585 230.534 168.636 230.264 168.978 230.083C172.371 228.042 175.464 237.735 182.337 234.093C185.299 232.523 185.761 231.744 182.521 225.63L180.831 222.44C178.293 228.114 174.087 222.561 171.993 226.686C171.222 228.261 167.619 223.848 170.384 220.438C172.01 218.458 174.539 219.744 177.136 220.605C179.325 221.342 180.458 220.45 181.597 219.846C182.432 219.404 182.021 219.086 181.277 219.335C179.499 219.742 178.236 217.542 177.532 216.213C175.479 212.34 173.741 211.996 172.032 212.901C162.729 217.831 170.187 226.767 167.241 227.356C167.069 227.398 166.895 227.345 166.734 227.041L160.617 215.497C159.913 214.168 159.591 213.56 161.3 212.655C167.451 209.396 174.286 205.774 180.4 202.535C180.628 202.414 180.985 202.905 180.896 203.196ZM148.667 217.589C147.049 219.795 148.009 226.604 148.538 230.044C148.766 231.531 148.988 232.975 149.21 234.419C149.713 237.689 150.81 244.26 153.015 245.878C153.169 246.028 153.166 246.289 152.996 246.315C149.385 246.87 145.818 247.419 142.25 247.967C142.037 248 141.956 247.752 142.057 247.562C143.674 245.357 142.747 238.76 142.244 235.49C142.022 234.046 141.8 232.602 141.572 231.115C141.043 227.674 139.913 220.892 137.708 219.274C137.505 219.088 137.457 218.487 137.711 218.447C141.279 217.899 144.847 217.35 148.458 216.795C148.67 216.763 148.846 217.344 148.667 217.589ZM135.12 235.398C135.506 235.422 135.579 235.641 135.561 235.942L134.93 246.451C134.858 247.652 134.559 248.323 132.5 248.2C125.036 247.751 120.189 247.46 112.768 247.015C110.709 246.891 110.492 246.189 110.565 244.988L111.196 234.478C111.214 234.178 111.312 233.969 111.698 233.992C114.583 233.993 118.923 250.613 119.304 244.264L120.121 230.666C120.33 227.192 120.656 220.323 118.841 218.277C118.64 218.049 118.719 217.451 119.019 217.469C122.622 217.686 126.226 217.902 129.829 218.119C130.086 218.134 130.136 218.74 129.909 218.941C127.863 220.756 127.365 227.614 127.156 231.089L126.337 244.73C125.961 250.993 132.256 235.054 135.12 235.398ZM100.805 214.71C98.206 215.56 95.0208 221.655 93.4471 224.759L91.446 228.708C89.95 231.659 87.0153 237.639 87.8659 240.238C87.9032 240.45 87.7483 240.661 87.595 240.583C81.1936 237.338 74.3323 233.861 67.931 230.616C66.6661 229.975 66.9202 229.188 67.4059 228.23L71.1362 220.871C71.3693 220.411 71.6198 220.297 71.9647 220.472C75.5884 222.067 69.4516 230.182 76.3896 233.699C79.3795 235.214 80.2831 235.142 83.4111 228.971L85.0431 225.751C78.9442 226.948 81.0561 220.31 76.4784 220.977C74.7472 221.255 76.2762 215.767 80.6565 216.06C83.2116 216.247 83.6191 219.055 84.4119 221.673C85.0725 223.887 86.454 224.298 87.6039 224.881C88.4472 225.309 88.4693 224.79 87.8376 224.325C86.4797 223.107 87.5493 220.807 88.2293 219.465C90.211 215.555 89.4896 213.937 87.7646 213.063C78.3735 208.303 75.3715 219.548 73.1919 217.48C73.058 217.364 73.0013 217.191 73.1567 216.884L79.0629 205.231C79.7429 203.89 80.0538 203.276 81.7787 204.151C87.9883 207.298 94.888 210.795 101.059 213.923C101.289 214.04 101.094 214.615 100.805 214.71ZM77.3979 200.966C79.1703 202.594 79.3116 203.774 76.2633 205.759L58.491 216.977C56.6261 218.181 55.9859 219.577 55.6809 220.989C55.6279 221.174 55.4218 221.335 55.2319 221.16L50.1997 216.538C48.6488 215.114 48.7736 214.47 49.4215 213.256L62.5562 188.093C62.6964 187.813 62.9025 187.652 63.2823 188.001L66.6055 191.053C68.2196 192.536 68.1033 192.663 67.2887 194.248C66.4423 195.805 65.7704 197.172 64.6438 199.288C62.9828 202.43 62.5531 204.486 65.6753 207.821C67.0466 209.314 67.801 209.89 69.0374 208.925C76.6355 203.067 63.762 199.295 68.6226 193.431C68.8261 193.21 68.9792 193.234 69.1691 193.408L77.3979 200.966ZM63.2074 212.731C64.9245 211.624 65.522 210.656 64.1928 209.435L62.6419 208.011C61.3443 206.819 60.5944 207.063 59.666 208.836L57.6665 212.602C55.4208 217.016 55.3885 217.686 57.787 216.155L63.2074 212.731ZM60.4646 187.492C60.5031 188.125 60.3832 188.503 59.6037 188.632L47.557 190.484C47.2925 190.547 47.167 190.018 47.4089 189.919C57.8089 186.306 47.7977 169.658 44.9094 174.38C42.4663 178.27 47.6622 188.043 46.3142 193.782C44.8967 199.817 36.3438 201.678 31.0475 193.13L25.7739 184.619C25.0269 183.413 25.6305 182.837 26.5437 182.271L33.5576 177.925C33.9959 177.654 34.2691 177.687 34.4955 178.052C35.1796 178.993 29.8939 188.739 32.4273 193.236C33.4181 194.998 35.1966 195.665 36.6876 195.298C44.9133 193.234 29.3716 174.351 42.6393 171.287C46.4373 170.4 51.4281 172.009 54.8049 175.175C57.8092 178.066 60.2576 183.323 60.4646 187.492ZM14.3197 149.503C14.22 149.129 14.2752 148.67 14.9036 148.858L30.6172 153.069C32.198 153.492 32.7489 153.389 33.9944 153.057C37.399 152.148 42.8545 150.424 44.0608 148.278C44.2129 148.015 44.8164 147.943 44.8829 148.192C45.8141 151.68 46.7454 155.167 47.6766 158.655C47.7432 158.904 47.1841 159.142 46.921 158.99C44.8583 157.762 39.4774 158.932 36.0202 159.81C34.484 160.221 34.0688 160.331 33.258 161.126L26.9679 167.387C24.9976 169.337 22.4101 171.807 21.2841 173.753C21.1624 173.963 20.8828 174.083 20.8052 173.792C20.1068 171.176 19.6301 169.391 18.9982 167.024C18.7654 166.152 18.8593 165.505 19.5373 164.879L27.7257 156.732C30.1471 154.306 28.8126 153.64 26.3625 152.959C18.7936 150.933 20.7076 163.098 18.9143 164.378C18.5738 164.602 18.3108 164.45 18.2332 164.159L14.3197 149.503Z" fill="#FE6300"/>
<circle cx="29.7567" cy="119.674" r="6.1427" fill="#FE6300"/>
<circle cx="230.244" cy="119.674" r="6.1427" fill="#FE6300"/>
</svg>
