<svg width="180" height="180" viewBox="0 0 180 180" fill="none" xmlns="http://www.w3.org/2000/svg">
<g clip-path="url(#clip0_62_5320)">
<circle cx="90" cy="90" r="80.8288" fill="url(#paint0_linear_62_5320)" stroke="#FF7B27" stroke-width="17.6577"/>
<path d="M107.857 102.734C108.198 103.257 108.384 103.727 108.393 104.132C108.488 108.727 105.18 111.761 103.514 112.703C98.2122 124.979 92.237 128.492 86.6151 126.155C67.9825 118.407 75.4376 109.128 73.6011 106.769C72.6888 105.597 65.1314 117.576 54.6504 101.724C52.4628 98.4153 59.3635 89.3181 62.6234 85.8745C64.4874 81.0625 65.4709 81.3144 67.8399 80.7494C70.0418 80.2242 103.366 95.8365 107.857 102.734ZM107.857 102.734C113.38 101.442 125.368 101.068 126.639 109.932C128.127 120.314 120.896 123.573 118.395 122.928C116.977 122.562 115.47 121.165 116.666 119.289C117.861 117.413 121.077 112.53 119.287 109.128C118.091 106.854 115.405 107.034 107.792 107.59" stroke="#FF7B27" stroke-width="2.34376"/>
<path d="M137.013 56.8676C131.336 50.7995 114.715 40.1399 93.6535 46.0471" stroke="#FF7B27" stroke-width="2.34376" stroke-linecap="round"/>
<path d="M79.9515 135.043C71.2282 136.634 56.8629 128.936 52.3266 117.994" stroke="#FF7B27" stroke-width="2.34376" stroke-linecap="round"/>
<path d="M83.0413 130.866C81.5203 132.06 79.1641 135.576 81.9073 140.093" stroke="#FF7B27" stroke-width="2.34376" stroke-linecap="round"/>
<path d="M67.5453 83.2466C97.5184 103.012 130.14 105.985 138.595 102.176C139.704 98.0077 142.447 85.6587 136.767 73.8363C130.972 61.7746 113.213 47.7411 90.9315 57.9554C77.8397 63.9568 77.3303 71.8693 73.3108 71.6372C69.2914 71.4052 66.1324 61.8644 60.431 43.1325C54.7295 24.4006 27.7171 56.9823 67.5453 83.2466Z" fill="#FBA838" stroke="#FF7B27" stroke-width="2.34376" stroke-linecap="round"/>
<path d="M122.435 69.8329C115.678 68.757 95.4506 68.8 88.6076 85.0683" stroke="#FF7B27" stroke-width="2.34376" stroke-linecap="round"/>
<circle cx="1.42025" cy="1.42025" r="1.42025" transform="matrix(-1 0 0 1 127.212 93.7178)" fill="#FF7B27"/>
<circle cx="1.42025" cy="1.42025" r="1.42025" transform="matrix(-1 0 0 1 103.972 88.8135)" fill="#FF7B27"/>
<path d="M90.8018 121.48C94.6384 120.21 98.0321 113.862 99.5815 108.31C100.843 103.789 87.2031 94.9033 82.9259 99.789C78.6486 104.675 77.8904 110.764 77.8904 113.475C77.8904 116 86.0061 123.068 90.8018 121.48Z" fill="#FF8F29" stroke="#FF7B27" stroke-width="2.34376" stroke-linecap="round"/>
<path d="M66.6585 105.425C69.0639 104.441 74.2834 99.1117 75.2548 94.8124C76.046 91.3108 67.9801 86.6573 64.5899 89.8215C60.7165 93.4367 58.6535 97.3863 58.6535 99.4859C58.6535 101.441 63.6517 106.655 66.6585 105.425Z" fill="#FF8F29" stroke="#FF7B27" stroke-width="2.34376" stroke-linecap="round"/>
<path d="M72.2693 109.333C48.3389 98.9625 13.7113 86.6814 66.644 120.523L72.2693 109.333Z" fill="#FFF7F3"/>
<path d="M72.2693 108.821C48.3389 98.4498 13.7113 86.1687 66.644 120.01" stroke="#FF7B27" stroke-width="2.34376" stroke-linecap="round"/>
<path d="M137.312 102.867C137.721 114.179 135.729 140.254 124.493 154.061" stroke="#FF7B27" stroke-width="2.39809" stroke-linecap="round"/>
<path d="M38.2295 53.7393C38.2295 59.2355 40.8618 71.8721 51.3912 78.4481" stroke="#FF7B27" stroke-width="2.30928" stroke-linecap="round"/>
</g>
<defs>
<linearGradient id="paint0_linear_62_5320" x1="90" y1="18" x2="90" y2="240.536" gradientUnits="userSpaceOnUse">
<stop stop-color="#FFF2E9"/>
<stop offset="0.157383" stop-color="#FFEFDA"/>
<stop offset="0.364979" stop-color="#FFF7F3"/>
</linearGradient>
<clipPath id="clip0_62_5320">
<rect width="180" height="180" fill="white"/>
</clipPath>
</defs>
</svg>
