<svg width="121" height="120" viewBox="0 0 121 120" fill="none" xmlns="http://www.w3.org/2000/svg">
<g clip-path="url(#clip0_104_579)">
<circle cx="60.3477" cy="60.0001" r="53.8859" fill="url(#paint0_linear_104_579)" stroke="#FF7B27" stroke-width="11.7718"/>
<path d="M72.2522 68.4892C72.4794 68.8381 72.6039 69.1514 72.6095 69.4215C72.6729 72.4848 70.4674 74.5071 69.3568 75.1354C65.8224 83.3195 61.839 85.6613 58.091 84.1029C45.6693 78.9378 50.6394 72.7516 49.415 71.1792C48.8068 70.3981 43.7686 78.3839 36.7813 67.8159C35.3228 65.6101 39.9233 59.5453 42.0966 57.2495C43.3393 54.0415 43.9949 54.2095 45.5743 53.8328C47.0422 53.4827 69.2585 63.8909 72.2522 68.4892ZM72.2522 68.4892C75.9344 67.6282 83.9265 67.3788 84.7734 73.2878C85.7654 80.2089 80.9451 82.3819 79.2775 81.9516C78.3325 81.7078 77.3278 80.7765 78.1248 79.5259C78.9217 78.2752 81.0659 75.0198 79.8725 72.7516C79.075 71.2358 77.2846 71.3558 72.2089 71.7265" stroke="#FF7B27" stroke-width="1.56251"/>
<path d="M91.6896 37.9116C87.9047 33.8662 76.8246 26.7598 62.7833 30.6979" stroke="#FF7B27" stroke-width="1.56251" stroke-linecap="round"/>
<path d="M53.6487 90.0284C47.8331 91.0894 38.2562 85.9573 35.2321 78.6625" stroke="#FF7B27" stroke-width="1.56251" stroke-linecap="round"/>
<path d="M55.7085 87.244C54.6945 88.0396 53.1238 90.3836 54.9525 93.3952" stroke="#FF7B27" stroke-width="1.56251" stroke-linecap="round"/>
<path d="M45.3779 55.4976C65.3599 68.6746 87.1077 70.6566 92.7443 68.1173C93.4833 65.3383 95.3121 57.1056 91.5255 49.2241C87.6623 41.1829 75.8232 31.8273 60.9687 38.6368C52.2408 42.6378 51.9012 47.9127 49.2216 47.758C46.5419 47.6033 44.4359 41.2428 40.635 28.7549C36.834 16.2669 18.8257 37.9881 45.3779 55.4976Z" fill="#FBA838" stroke="#FF7B27" stroke-width="1.56251" stroke-linecap="round"/>
<path d="M81.9712 46.5552C77.4666 45.8379 63.9814 45.8666 59.4194 56.7121" stroke="#FF7B27" stroke-width="1.56251" stroke-linecap="round"/>
<circle cx="0.946831" cy="0.946831" r="0.946831" transform="matrix(-1 0 0 1 85.1558 62.4784)" fill="#FF7B27"/>
<circle cx="0.946831" cy="0.946831" r="0.946831" transform="matrix(-1 0 0 1 69.6621 59.2089)" fill="#FF7B27"/>
<path d="M60.8822 80.9866C63.4399 80.1397 65.7024 75.9081 66.7353 72.2069C67.5766 69.1924 58.4831 63.2687 55.6316 66.5259C52.7801 69.783 52.2746 73.8423 52.2746 75.6499C52.2746 77.3333 57.685 82.0452 60.8822 80.9866Z" fill="#FF8F29" stroke="#FF7B27" stroke-width="1.56251" stroke-linecap="round"/>
<path d="M44.7866 70.2833C46.3903 69.6275 49.8699 66.0743 50.5175 63.2081C51.045 60.8738 45.6677 57.7714 43.4076 59.8809C40.8253 62.291 39.45 64.9241 39.45 66.3238C39.45 67.6274 42.7821 71.1031 44.7866 70.2833Z" fill="#FF8F29" stroke="#FF7B27" stroke-width="1.56251" stroke-linecap="round"/>
<path d="M48.5272 72.8887C32.5736 65.9749 9.48852 57.7875 44.777 80.3485L48.5272 72.8887Z" fill="#FFF7F3"/>
<path d="M48.5272 72.547C32.5736 65.6331 9.48852 57.4457 44.777 80.0067" stroke="#FF7B27" stroke-width="1.56251" stroke-linecap="round"/>
<path d="M91.8888 68.578C92.1614 76.1192 90.8339 93.5026 83.3433 102.707" stroke="#FF7B27" stroke-width="1.59873" stroke-linecap="round"/>
<path d="M25.834 35.826C25.834 39.4902 27.5889 47.9146 34.6085 52.2986" stroke="#FF7B27" stroke-width="1.53952" stroke-linecap="round"/>
</g>
<defs>
<linearGradient id="paint0_linear_104_579" x1="60.3477" y1="12.0001" x2="60.3477" y2="160.357" gradientUnits="userSpaceOnUse">
<stop stop-color="#FFF2E9"/>
<stop offset="0.157383" stop-color="#FFEFDA"/>
<stop offset="0.364979" stop-color="#FFF7F3"/>
</linearGradient>
<clipPath id="clip0_104_579">
<rect width="120" height="120" fill="white" transform="translate(0.347656)"/>
</clipPath>
</defs>
</svg>
